<?xml version="1.0" encoding="utf-8"?>
<!-- Generator: Adobe Illustrator 24.0.0, SVG Export Plug-In . SVG Version: 6.00 Build 0)  -->
<svg version="1.1" id="Capa_1" xmlns="http://www.w3.org/2000/svg" xmlns:xlink="http://www.w3.org/1999/xlink" x="0px" y="0px"
	 viewBox="0 0 600 600" style="enable-background:new 0 0 600 600;" xml:space="preserve">
<style type="text/css">
	.st0{fill:#FFA372;}
	.st1{fill:#6F4A8E;}
</style>
<g>
	<g>
		<g>
			<path d="M562.93,450.73l-12.31-5.44c-0.48-1.76-0.96-3.36-1.6-4.96l6.87-11.83c1.6-2.72,1.6-6.08,0.16-8.79
				c-3.68-6.4-8-12.47-12.95-17.91c-2.08-2.56-5.44-3.52-8.47-2.88l-12.95,3.04c-1.28-0.96-2.72-1.92-4-2.88l-1.28-13.75
				c-0.32-3.2-2.24-5.92-5.12-7.2c-6.56-3.2-13.59-5.44-20.63-7.04c-3.2-0.64-6.56,0.48-8.64,2.88l-9.12,10.55h-4.32l-9.11-10.55
				c-2.08-2.4-5.28-3.52-8.48-2.88c-7.2,1.6-14.07,3.84-20.79,7.04c-2.88,1.28-4.8,4-5.12,7.2l-1.12,13.75
				c-1.44,0.96-2.72,1.92-4,2.88l-12.95-3.04c-3.2-0.64-6.4,0.32-8.63,2.88c-4.96,5.44-9.28,11.51-12.79,17.91
				c-1.6,2.72-1.6,6.08,0,8.79l6.87,11.83c-0.48,1.6-1.12,3.2-1.6,4.96l-12.31,5.44c-3.2,1.44-5.28,4.64-5.28,8.16v20.15
				c0,3.52,2.08,6.72,5.28,8.16l12.31,5.44c0.48,1.76,1.12,3.36,1.6,4.96l-6.87,11.83c-1.6,2.72-1.6,6.08,0,8.79
				c3.52,6.56,7.84,12.47,12.79,18.07c2.24,2.4,5.43,3.36,8.63,2.72l12.95-3.04c1.28,0.96,2.56,1.92,4,2.88l1.12,13.75
				c0.32,3.2,2.24,5.92,5.12,7.35c6.71,3.04,13.59,5.44,20.79,6.88c3.2,0.64,6.4-0.48,8.48-2.88l9.11-10.55h4.32l9.12,10.55
				c1.76,1.92,4.16,3.04,6.71,3.04c0.64,0,1.28,0,1.92-0.16c7.03-1.44,14.07-3.84,20.63-6.88c2.88-1.44,4.8-4.16,5.12-7.35
				l1.28-13.75c1.28-0.96,2.72-1.92,4-2.88l12.95,3.04c3.04,0.64,6.39-0.32,8.47-2.72c4.96-5.6,9.27-11.51,12.95-18.07
				c1.44-2.72,1.44-6.08-0.16-8.79l-6.87-11.83c0.64-1.6,1.12-3.2,1.6-4.96l12.31-5.44c3.2-1.44,5.28-4.64,5.28-8.16v-20.15
				C568.2,455.37,566.13,452.17,562.93,450.73z M550.46,473.28l-11.03,4.8c-2.56,1.12-4.48,3.52-5.12,6.24
				c-0.8,3.68-1.92,7.2-3.36,10.71c-0.96,2.56-0.8,5.44,0.64,7.84l6.24,11.03c-1.44,2.24-2.88,4.32-4.64,6.4l-11.83-2.72
				c-2.88-0.64-5.76,0.16-8,2.08c-2.72,2.4-5.76,4.64-8.8,6.56c-2.4,1.44-4,4-4.32,6.72l-1.12,12.79c-2.4,0.96-4.8,1.76-7.2,2.4
				l-8.16-9.43c-1.6-1.92-4.16-3.04-6.71-3.04h-12.47c-2.72,0-5.12,1.12-6.87,3.04l-8.16,9.43c-2.4-0.64-4.8-1.44-7.19-2.4
				l-1.12-12.79c-0.16-2.72-1.76-5.28-4.16-6.72c-3.2-1.92-6.08-4.16-8.96-6.56c-2.08-1.92-5.12-2.72-7.84-2.08l-11.99,2.72
				c-1.6-2.08-3.2-4.16-4.64-6.4l6.4-11.03c1.44-2.4,1.6-5.28,0.48-7.84c-1.44-3.52-2.56-7.04-3.36-10.71
				c-0.64-2.72-2.56-5.12-5.12-6.24l-10.87-4.8v-8.63l10.87-4.8c2.56-1.12,4.48-3.36,5.12-6.24c0.8-3.68,1.92-7.2,3.36-10.71
				c1.12-2.56,0.96-5.44-0.48-7.84l-6.4-11.03c1.44-2.24,3.04-4.32,4.64-6.4l11.99,2.72c2.72,0.64,5.76-0.16,7.84-2.08
				c2.88-2.4,5.76-4.64,8.96-6.56c2.4-1.44,4-4,4.16-6.72l1.12-12.79c2.4-0.96,4.8-1.76,7.19-2.4l8.16,9.43
				c1.76,2.08,4.16,3.2,6.87,3.2h12.47c2.56,0,5.12-1.12,6.71-3.2l8.16-9.43c2.4,0.64,4.8,1.44,7.2,2.4l1.12,12.79
				c0.32,2.72,1.92,5.28,4.32,6.72c3.04,1.92,6.08,4.16,8.8,6.56c2.24,1.92,5.12,2.72,8,2.08l11.83-2.72
				c1.76,2.08,3.2,4.16,4.64,6.4l-6.24,11.03c-1.44,2.4-1.6,5.28-0.64,7.84c1.44,3.52,2.56,7.04,3.36,10.71
				c0.64,2.88,2.56,5.12,5.12,6.24l11.03,4.8V473.28z"/>
			<path class="st0" d="M539.42,459.85c-2.56-1.12-4.48-3.36-5.12-6.24c-0.8-3.68-1.92-7.2-3.36-10.71
				c-0.96-2.56-0.8-5.44,0.64-7.84l6.24-11.03c-1.44-2.24-2.88-4.32-4.64-6.4l-11.83,2.72c-2.88,0.64-5.76-0.16-8-2.08
				c-2.72-2.4-5.76-4.64-8.8-6.56c-2.4-1.44-4-4-4.32-6.72l-1.12-12.79c-2.4-0.96-4.8-1.76-7.2-2.4l-8.16,9.43
				c-1.6,2.08-4.16,3.2-6.71,3.2h-12.47c-2.72,0-5.12-1.12-6.87-3.2l-8.16-9.43c-2.4,0.64-4.8,1.44-7.19,2.4L441.24,405
				c-0.16,2.72-1.76,5.28-4.16,6.72c-3.2,1.92-6.08,4.16-8.96,6.56c-2.08,1.92-5.12,2.72-7.84,2.08l-11.99-2.72
				c-1.6,2.08-3.2,4.16-4.64,6.4l6.4,11.03c1.44,2.4,1.6,5.28,0.48,7.84c-1.44,3.52-2.56,7.04-3.36,10.71
				c-0.64,2.88-2.56,5.12-5.12,6.24l-10.87,4.8v8.63l10.87,4.8c2.56,1.12,4.48,3.52,5.12,6.24c0.8,3.68,1.92,7.2,3.36,10.71
				c1.12,2.56,0.96,5.44-0.48,7.84l-6.4,11.03c1.44,2.24,3.04,4.32,4.64,6.4l11.99-2.72c2.72-0.64,5.76,0.16,7.84,2.08
				c2.88,2.4,5.76,4.64,8.96,6.56c2.4,1.44,4,4,4.16,6.72l1.12,12.79c2.4,0.96,4.8,1.76,7.19,2.4l8.16-9.43
				c1.76-1.92,4.16-3.04,6.87-3.04h12.47c2.56,0,5.12,1.12,6.71,3.04l8.16,9.43c2.4-0.64,4.8-1.44,7.2-2.4l1.12-12.79
				c0.32-2.72,1.92-5.28,4.32-6.72c3.04-1.92,6.08-4.16,8.8-6.56c2.24-1.92,5.12-2.72,8-2.08l11.83,2.72
				c1.76-2.08,3.2-4.16,4.64-6.4l-6.24-11.03c-1.44-2.4-1.6-5.28-0.64-7.84c1.44-3.52,2.56-7.04,3.36-10.71
				c0.64-2.72,2.56-5.12,5.12-6.24l11.03-4.8v-8.63L539.42,459.85z M470.82,513.57c-24.62,0-44.61-19.99-44.61-44.61
				c0-24.62,19.99-44.61,44.61-44.61c24.63,0.16,44.45,19.99,44.45,44.61C515.28,493.59,495.45,513.57,470.82,513.57z"/>
		</g>
	</g>
	<g>
		<g>
			<path d="M470.82,424.35c-24.62,0-44.61,19.99-44.61,44.61c0,24.63,19.99,44.61,44.61,44.61c24.63,0,44.45-19.99,44.45-44.61
				C515.28,444.34,495.45,424.51,470.82,424.35z M470.82,495.67c-14.87,0-26.7-11.99-26.7-26.7c0-14.71,11.83-26.7,26.7-26.7
				c14.71,0,26.7,11.99,26.7,26.7C497.53,483.67,485.53,495.67,470.82,495.67z"/>
		</g>
	</g>
	<g>
		<g>
			<path d="M283.58,67.92c-73.88,0-133.68,59.8-133.68,133.68c0.16,73.72,59.96,133.52,133.68,133.68
				c73.88,0,133.68-59.8,133.68-133.68S357.45,67.92,283.58,67.92z M172.6,234.54c-18.23-61.24,16.63-125.68,77.88-144.07
				c10.71-3.2,21.9-4.8,33.1-4.8s22.39,1.76,33.1,4.96c-2.24,1.44-4.48,2.72-6.55,4.32c-3.04,2.24-4.16,6.24-3.04,9.91l4.16,12.47
				c-1.76,1.6-3.36,3.2-4.96,4.8l-12.47-4c-3.68-1.28-7.52,0-9.92,3.04c-6.55,8.64-11.99,18.07-16.31,28.14
				c-1.6,3.52-0.64,7.52,2.24,10.07l9.91,8.79c-0.8,2.24-1.28,4.48-1.92,6.72l-12.79,2.72c-4.16,0.96-7.19,4.48-7.19,8.79v30.38
				c0,4.16,3.04,7.84,7.19,8.63l12.79,2.72c0.64,2.24,1.12,4.48,1.92,6.72l-9.91,8.96c-2.88,2.56-3.84,6.56-2.24,10.07
				c4.32,10.07,9.75,19.35,16.31,28.14c2.24,3.04,6.24,4.16,9.92,3.04l12.47-4.16c1.6,1.76,3.2,3.36,4.96,4.96l-4.16,12.47
				c-1.12,3.68,0,7.52,3.04,9.91c2.08,1.44,4.32,2.88,6.55,4.32C255.27,330.8,190.83,295.94,172.6,234.54z M337.3,304.1
				c-3.84-1.92-7.68-4.16-11.19-6.4l3.84-11.83c1.12-3.36,0-7.19-2.72-9.59c-4.16-3.36-8-7.2-11.35-11.35
				c-2.4-2.72-6.23-3.84-9.59-2.72l-11.83,3.84c-2.88-4.32-5.6-8.79-7.84-13.43l9.27-8.32c2.72-2.4,3.68-6.24,2.56-9.59
				c-1.92-5.12-3.36-10.23-4.32-15.51c-0.64-3.68-3.36-6.4-6.88-7.2l-11.51-2.4v-15.99l11.51-2.4c3.52-0.8,6.24-3.52,6.88-7.2
				c0.96-5.28,2.4-10.39,4.32-15.51c1.12-3.36,0.16-7.2-2.56-9.59l-9.27-8.47c2.24-4.64,4.96-9.11,7.84-13.43l11.83,4
				c3.36,1.12,7.19,0,9.59-2.72c3.36-4.16,7.2-8,11.35-11.51c2.72-2.24,3.84-6.08,2.72-9.59l-3.84-11.67
				c3.52-2.4,7.36-4.48,11.19-6.56c12.15,6.56,23.19,15.03,32.3,25.27c-42.7,11.51-67.96,55.49-56.45,98.18
				c7.35,27.5,28.94,49.09,56.45,56.61C360.49,289.23,349.46,297.7,337.3,304.1z M328.83,192.65c3.84-27.34,25.43-48.77,52.77-52.61
				c23.83,37.58,23.83,85.55,0,123.13C347.54,258.37,323.87,226.71,328.83,192.65z"/>
			<path class="st1" d="M369.6,278.99c-9.12,10.23-20.15,18.71-32.3,25.11c-3.84-1.92-7.68-4.16-11.19-6.4l3.84-11.83
				c1.12-3.36,0-7.19-2.72-9.59c-4.16-3.36-8-7.2-11.35-11.35c-2.4-2.72-6.23-3.84-9.59-2.72l-11.83,3.84
				c-2.88-4.32-5.6-8.79-7.84-13.43l9.27-8.32c2.72-2.4,3.68-6.24,2.56-9.59c-1.92-5.12-3.36-10.23-4.32-15.51
				c-0.64-3.68-3.36-6.4-6.88-7.2l-11.51-2.4v-15.99l11.51-2.4c3.52-0.8,6.24-3.52,6.88-7.2c0.96-5.28,2.4-10.39,4.32-15.51
				c1.12-3.36,0.16-7.2-2.56-9.59l-9.27-8.47c2.24-4.64,4.96-9.11,7.84-13.43l11.83,4c3.36,1.12,7.19,0,9.59-2.72
				c3.36-4.16,7.2-8,11.35-11.51c2.72-2.24,3.84-6.08,2.72-9.59l-3.84-11.67c3.52-2.4,7.36-4.48,11.19-6.56
				c12.15,6.56,23.19,15.03,32.3,25.27c-42.7,11.51-67.96,55.49-56.45,98.18C320.51,249.89,342.1,271.48,369.6,278.99z"/>
		</g>
	</g>
	<g>
		<g>
			<path d="M518.48,184.33l-10.72-4.64c-0.32-1.28-0.8-2.56-1.12-3.84l5.91-10.23c1.6-2.72,1.6-6.08,0-8.79
				c-3.2-5.92-7.19-11.35-11.67-16.31c-2.08-2.4-5.44-3.52-8.64-2.72l-11.19,2.56c-0.96-0.8-1.92-1.44-2.88-2.24l-1.12-11.83
				c-0.32-3.2-2.24-5.92-5.12-7.36c-5.91-2.72-12.31-4.96-18.71-6.24c-3.2-0.64-6.4,0.32-8.48,2.56L435,125.97
				C393.43,42.34,291.89,8.12,208.26,49.69c-83.79,41.57-117.85,142.95-76.43,226.74c2.56,4.96,5.28,9.75,8.15,14.55l-23.83,29.74
				c-1.44,1.92-2.08,4.48-1.76,6.88c0.32,2.4,1.6,4.48,3.52,5.92l19.35,14.07L36.04,472.32c-3.04,3.84-2.56,9.43,1.28,12.47
				l44.61,35.66c3.84,3.04,9.43,2.56,12.47-1.28l103.62-127.44l17.91,13.11c3.84,2.88,9.28,2.08,12.31-1.6l27.66-34.7
				c73.4,12.63,146.32-24.63,179.09-91.47l9.75,10.71c1.6,1.92,4,2.88,6.56,2.88c0.64,0,1.28,0,1.92-0.16
				c6.4-1.44,12.79-3.52,18.71-6.24c2.88-1.44,4.8-4.16,5.12-7.36l1.12-11.99c0.96-0.64,1.92-1.28,2.88-2.08l11.19,2.56
				c3.2,0.8,6.56-0.32,8.64-2.72c4.48-4.96,8.48-10.39,11.67-16.31c1.6-2.72,1.6-6.08,0-8.79l-5.91-10.23
				c0.32-1.28,0.8-2.56,1.12-3.84l10.72-4.64c3.2-1.44,5.27-4.64,5.27-8.15v-18.23C523.75,188.97,521.67,185.77,518.48,184.33z
				 M86.25,501.1l-30.7-24.62l96.1-118.33l31.82,23.19L86.25,501.1z M219.61,385.49l-18.07-13.11l-0.96-0.8l-64.6-47.01l14.71-18.39
				c21.9,27.82,51.97,48.13,85.87,58.05L219.61,385.49z M283.58,353.03c-83.63,0-151.43-67.8-151.43-151.43
				c0-83.63,67.8-151.43,151.43-151.59c83.79,0,151.59,67.96,151.59,151.59C435.16,285.23,367.37,353.03,283.58,353.03z
				 M505.84,204.8l-9.28,4.16c-2.56,1.12-4.48,3.52-5.12,6.24c-0.64,3.2-1.76,6.4-2.88,9.43c-1.12,2.72-0.96,5.6,0.48,8l5.44,9.27
				c-1.12,1.76-2.24,3.36-3.52,4.96l-10.23-2.4c-2.72-0.64-5.76,0.16-7.84,2.08c-2.4,2.08-5.12,4.16-7.84,5.76
				c-2.4,1.6-4,4-4.32,6.88l-0.96,10.87c-1.76,0.64-3.68,1.28-5.43,1.76l-11.67-12.79c13.75-37.1,13.75-77.87,0-114.97l11.67-12.79
				c1.76,0.64,3.68,1.28,5.43,1.92l0.96,10.87c0.32,2.88,1.92,5.28,4.32,6.72c2.72,1.76,5.44,3.68,7.84,5.92
				c2.08,1.92,5.12,2.72,7.84,1.92l10.23-2.24c1.28,1.6,2.4,3.2,3.52,4.8l-5.44,9.43c-1.44,2.4-1.6,5.28-0.48,7.84
				c1.12,3.2,2.24,6.4,2.88,9.59c0.64,2.72,2.56,5.12,5.12,6.24l9.28,4V204.8z"/>
			<path class="st0" d="M236.56,364.22l-16.95,21.27l-18.07-13.11l-0.96-0.8l-64.6-47.01l14.71-18.39
				C172.6,334,202.66,354.31,236.56,364.22z"/>
			<polygon class="st1" points="183.47,381.33 86.25,501.1 55.55,476.48 151.65,358.15 			"/>
		</g>
	</g>
</g>
<g>
</g>
<g>
</g>
<g>
</g>
<g>
</g>
<g>
</g>
<g>
</g>
<g>
</g>
<g>
</g>
<g>
</g>
<g>
</g>
<g>
</g>
<g>
</g>
<g>
</g>
<g>
</g>
<g>
</g>
</svg>
