<?xml version="1.0" encoding="utf-8"?>
<!-- Generator: Adobe Illustrator 24.0.0, SVG Export Plug-In . SVG Version: 6.00 Build 0)  -->
<svg version="1.1" id="Capa_1" xmlns="http://www.w3.org/2000/svg" xmlns:xlink="http://www.w3.org/1999/xlink" x="0px" y="0px"
	 viewBox="0 0 600 600" style="enable-background:new 0 0 600 600;" xml:space="preserve">
<style type="text/css">
	.st0{fill:#FFA372;}
	.st1{fill:#6F4A8E;}
</style>
<g>
	<g>
		<path d="M202.03,432.28c15.16-14.67,24.61-35.2,24.61-57.91c0-44.45-36.17-80.62-80.62-80.62S65.4,329.92,65.4,374.37
			c0,22.64,9.39,43.11,24.46,57.77c-47.2,19.83-80.1,63.84-80.1,114.83c0,9.41,7.63,17.03,17.03,17.03s17.03-7.63,17.03-17.03
			c0-50.72,45.84-91.98,102.2-91.98c55.72,0,101.06,41.26,101.06,91.98c0,9.41,7.63,17.03,17.03,17.03s17.03-7.63,17.03-17.03
			C281.15,496.09,248.66,452.17,202.03,432.28z M99.46,374.37c0-25.67,20.89-46.56,46.56-46.56s46.56,20.89,46.56,46.56
			s-20.89,46.56-46.56,46.56S99.46,400.04,99.46,374.37z"/>
		<path d="M319.75,292.61c0,9.41,7.63,17.03,17.03,17.03c9.41,0,17.03-7.63,17.03-17.03c0-50.72,45.34-91.98,101.06-91.98
			c56.35,0,102.2,41.26,102.2,91.98c0,9.41,7.63,17.03,17.03,17.03c9.41,0,17.03-7.63,17.03-17.03c0-50.99-32.9-95-80.1-114.83
			c15.07-14.66,24.46-35.13,24.46-57.77c0-44.45-36.17-80.62-80.62-80.62s-80.62,36.17-80.62,80.62c0,22.71,9.45,43.24,24.61,57.91
			C352.23,197.82,319.75,241.74,319.75,292.61z M408.32,120.02c0-25.67,20.89-46.56,46.56-46.56s46.56,20.89,46.56,46.56
			s-20.89,46.56-46.56,46.56S408.32,145.69,408.32,120.02z"/>
		<path d="M307.59,75.97c-3.47-0.66,11.75-0.17-226.21-0.17c-18.86,0-34.09,15.22-34.09,33.92V221.1c0,18.7,15.22,34.09,34.09,34.09
			h165.65c18.87,0,34.09-15.39,34.09-34.09v-37.56c1.49-1.32,12.41-13.57,43.19-48.65C346.64,112.55,335.72,81.1,307.59,75.97z
			 M257.94,157.56c-7.12,7.12-10.92,16.38-10.92,25.98v37.56H81.38V109.73c132.38,0,200.9,0.16,219.76,0.16
			C299.15,112.05,287.07,124.63,257.94,157.56z"/>
		<path class="st0" d="M301.13,109.9c-1.98,2.15-14.07,14.73-43.19,47.66c-7.12,7.12-10.92,16.38-10.92,25.98v37.56H81.38V109.73
			C213.76,109.73,282.27,109.9,301.13,109.9z"/>
		<path d="M557.13,348.19c-280.32,0-260.63-0.33-263.94,0.33c-27.97,5.13-39.05,36.57-16.71,58.91
			c30.95,35.08,41.87,47.16,43.36,48.65v37.56c0,18.7,15.22,34.09,33.92,34.09h203.37c18.7,0,33.92-15.39,33.92-34.09V382.28
			C591.06,363.58,575.83,348.19,557.13,348.19z M557.13,493.65H353.76v-37.56c0-9.6-3.81-18.87-10.76-25.98
			c-29.12-32.93-41.2-45.67-43.36-47.82h257.49V493.65z"/>
		<path class="st1" d="M299.65,382.28c2.15,2.15,14.23,14.89,43.36,47.82c6.95,7.12,10.76,16.38,10.76,25.98v37.56h203.37V382.28
			H299.65z M437.16,452.11c-8.27,5.46-18.86,2.81-23.66-4.63c-5.3-7.94-3.14-18.37,4.63-23.66c8.11-5.3,18.53-2.98,23.66,4.63
			C447.09,436.39,444.94,446.82,437.16,452.11z M514.44,447.48c-8.27,12.41-27.8,8.77-30.78-6.12c-1.82-9.43,4.14-18.2,13.24-20.02
			C512.12,418.35,522.71,434.9,514.44,447.48z"/>
	</g>
</g>
<g>
</g>
<g>
</g>
<g>
</g>
<g>
</g>
<g>
</g>
<g>
</g>
<g>
</g>
<g>
</g>
<g>
</g>
<g>
</g>
<g>
</g>
<g>
</g>
<g>
</g>
<g>
</g>
<g>
</g>
</svg>
