<?xml version="1.0" encoding="utf-8"?>
<!-- Generator: Adobe Illustrator 24.0.0, SVG Export Plug-In . SVG Version: 6.00 Build 0)  -->
<svg version="1.1" id="Capa_1" xmlns="http://www.w3.org/2000/svg" xmlns:xlink="http://www.w3.org/1999/xlink" x="0px" y="0px"
	 viewBox="0 0 600 600" style="enable-background:new 0 0 600 600;" xml:space="preserve">
<style type="text/css">
	.st0{fill:#6F4A8E;}
	.st1{fill:#FFA372;}
</style>
<g>
	<g>
		<g>
			<rect x="345.91" y="325.48" width="18.28" height="18.28"/>
		</g>
	</g>
	<g>
		<g>
			<path d="M575,334.7V77.95c0-25.24-20.55-45.79-45.79-45.79H171.67c-50.48,0-91.57,41.09-91.57,91.73
				c0,30.25,14.72,56.95,37.37,73.61c-51.61,4.37-92.38,47.73-92.38,100.47v257.56h0.16c0.48,4.53,4.21,8.25,9.06,8.25h210.8
				c5.02,0,9.06-4.04,9.06-9.22V425.3c9.71,9.87,22.49,16.5,36.73,18.61v0.81h265.81v36.56h-36.72v18.28h18.44v64.23h18.28v-64.23
				h9.22c5.02,0,9.06-4.04,9.06-9.06v-55.01c0-5.02-4.04-9.22-9.06-9.22H448.97c4.37-6.47,6.96-14.4,6.96-22.81
				c0-8.58-2.59-16.5-6.96-22.97h80.24C554.45,380.49,575,359.94,575,334.7z M529.21,50.45c15.21,0,27.5,12.46,27.5,27.5v210.8
				h-42.22l11.49-34.3c8.41-25.56,6.47-52.9-5.5-77.01l-8.9-17.63l0.48-1.29c11.16-33.65,0.16-71.02-27.5-93.03l-4.69-3.72
				c-3.23-2.75-8.09-2.75-11.32,0l-4.69,3.56c-27.66,22.16-38.66,59.54-27.5,93.19l0.49,1.29l-8.9,17.63
				c-11.97,24.11-13.91,51.45-5.34,77.01l11.49,34.3H391.7v-82.35c0-1.29-0.16-2.43-0.65-3.56l-36.56-91.57
				c-1.45-3.56-4.85-5.82-8.57-5.82c-3.72,0-7.12,2.27-8.58,5.82l-36.56,91.57c-0.48,1.13-0.65,2.27-0.65,3.56v33.81
				c-16.83-23.78-43.52-40.12-74.26-42.71c22.81-16.66,37.54-43.36,37.54-73.61c0-30.09-14.56-56.62-36.89-73.45H529.21z
				 M471.94,141.85c0.81,0.16,1.46,0.32,2.27,0.32c2.43,0,4.69-0.97,6.47-2.75l4.53-4.37l12.13,5.99
				c-0.49,3.56-1.13,6.96-2.27,10.35h-41.74c-1.46-4.85-2.27-9.87-2.59-14.72L471.94,141.85z M452.04,118.07
				c2.91-14.4,10.52-27.67,22.17-37.53c12.3,10.35,20.06,24.59,22.81,39.8l-9.54-4.69c-3.56-1.78-7.77-1.13-10.52,1.78l-5.5,5.5
				L452.04,118.07z M452.37,169.68h43.68l7.93,16.02c0.49,0.65,0.81,1.46,1.13,2.27h-61.8c0.49-0.81,0.65-1.62,1.13-2.27
				L452.37,169.68z M511.09,206.41c2.75,13.91,2.1,28.31-2.59,42.23l-13.43,40.12h-41.74l-13.43-40.12
				c-4.53-13.91-5.34-28.31-2.59-42.23H511.09z M331.68,188.93c-1.3-0.65-2.75-0.97-4.04-0.97c-0.49,0-0.81,0-1.3,0.16l19.58-48.7
				l19.42,48.7c-1.78-0.32-3.56,0-5.18,0.81l-14.24,7.12L331.68,188.93z M336.69,212.07v76.69h-18.28v-76.69l9.22-4.69
				L336.69,212.07z M355.13,212.07l9.06-4.69l9.22,4.69v76.69h-18.28V212.07z M98.38,123.9c0-40.45,33-73.45,73.29-73.45
				c40.45,0,73.45,33,73.45,73.45c0,16.99-5.98,32.68-15.69,45.14c-17.15-3.07-30.25-18.12-30.25-36.08h-18.28
				c0,22.65,13.75,42.06,33.33,50.64c-11.97,8.41-26.69,13.59-42.55,13.59C131.39,197.19,98.38,164.34,98.38,123.9z M199.18,545.51
				H43.37V316.26h128.78c8.41-0.32,16.02,2.43,21.35,7.44c2.59,2.43,5.66,6.8,5.66,12.62V545.51z M414.67,426.27H300.13
				c-25.4,0-45.95-20.55-45.95-45.79v-82.51H235.9v247.53h-18.28V336.32c0-9.71-4.04-18.77-11.49-25.89
				c-8.9-8.41-21.52-12.94-34.46-12.46H43.37c0-45.46,37.05-82.51,82.51-82.51h91.73c45.46,0,82.51,37.05,82.51,82.51v73.29
				c0,5.18,4.04,9.22,9.06,9.22h105.48c12.62,0,22.81,10.19,22.81,22.97C437.48,416.08,427.29,426.27,414.67,426.27z M318.41,362.21
				V307.2h238.31v27.5c0,15.05-12.3,27.5-27.5,27.5H318.41z"/>
			<path class="st0" d="M505.11,187.96h-61.8c0.49-0.81,0.65-1.62,1.13-2.27l7.93-16.02h43.68l7.93,16.02
				C504.46,186.35,504.78,187.16,505.11,187.96z"/>
			<path class="st0" d="M497.02,120.34l-9.54-4.69c-3.56-1.78-7.77-1.13-10.52,1.78l-5.5,5.5l-19.42-4.85
				c2.91-14.4,10.52-27.67,22.17-37.53C486.5,90.89,494.27,105.13,497.02,120.34z"/>
			<path class="st0" d="M318.41,307.2v55.01h210.81c15.21,0,27.5-12.46,27.5-27.5v-27.5H318.41z M364.19,343.76h-18.28v-18.28h18.28
				V343.76z"/>
			<path class="st1" d="M365.33,188.13c-1.78-0.32-3.56,0-5.18,0.81l-14.24,7.12l-14.24-7.12c-1.3-0.65-2.75-0.97-4.04-0.97
				c-0.49,0-0.81,0-1.3,0.16l19.58-48.7L365.33,188.13z"/>
			<path class="st1" d="M199.18,336.32v209.19H43.37V316.26h128.78c8.41-0.32,16.02,2.43,21.35,7.44
				C196.1,326.13,199.18,330.5,199.18,336.32z"/>
		</g>
	</g>
</g>
<g>
</g>
<g>
</g>
<g>
</g>
<g>
</g>
<g>
</g>
<g>
</g>
<g>
</g>
<g>
</g>
<g>
</g>
<g>
</g>
<g>
</g>
<g>
</g>
<g>
</g>
<g>
</g>
<g>
</g>
</svg>
