<?xml version="1.0" encoding="utf-8"?>
<!-- Generator: Adobe Illustrator 24.0.0, SVG Export Plug-In . SVG Version: 6.00 Build 0)  -->
<svg version="1.1" id="Capa_1" xmlns="http://www.w3.org/2000/svg" xmlns:xlink="http://www.w3.org/1999/xlink" x="0px" y="0px"
	 viewBox="0 0 600 600" style="enable-background:new 0 0 600 600;" xml:space="preserve">
<style type="text/css">
	.st0{fill:#6F4A8E;}
	.st1{fill:#FFA372;}
</style>
<g>
	<g>
		<g>
			<path d="M362.91,380.49c-1.73-0.53-3.46-0.67-5.06-0.4h-0.67c15.18-14.78,24.64-35.56,24.64-58.46V205.1
				c0-6.53-5.2-11.72-11.72-11.72h-86.7c-35.82,0-64.99,29.16-64.99,64.99v63.26c0,22.91,9.46,43.68,24.64,58.46h-0.53
				c-1.73-0.27-3.46-0.13-5.06,0.4c-60.59,5.46-108.14,56.47-108.14,118.26v57.53c0,6.53,5.19,11.72,11.72,11.72h318.28
				c6.39,0,11.59-5.19,11.59-11.72v-57.4C470.91,436.96,423.37,385.95,362.91,380.49z M241.86,258.37
				c0-11.45,4.66-21.84,12.25-29.43c7.46-7.46,17.85-12.12,29.3-12.12h75.11v31.3c0,15.85-12.92,28.76-28.77,28.76h-87.89V258.37z
				 M241.86,321.63v-21.44h87.89c10.65,0,20.51-3.2,28.77-8.66v30.1c0,32.23-26.24,58.33-58.33,58.33
				C267.96,379.96,241.86,353.86,241.86,321.63z M331.22,403.4l-31.03,31.16l-31.16-31.16H331.22z M447.61,544.56H152.76v-33.69
				h95.48c6.53,0,11.72-5.19,11.72-11.72c0-6.39-5.19-11.72-11.72-11.72h-94.82c5.19-43.41,39.69-78.04,83.23-83.37l55.27,55.27
				c2.26,2.26,5.19,3.46,8.26,3.46c2.93,0,5.99-1.2,8.26-3.46l55.13-55.27c47.28,5.73,84.03,46.08,84.03,94.82V544.56z"/>
			<path class="st0" d="M447.61,498.88v45.68H152.76v-33.69h95.48c6.53,0,11.72-5.19,11.72-11.72c0-6.39-5.19-11.72-11.72-11.72
				h-94.82c5.19-43.41,39.69-78.04,83.23-83.37l55.27,55.27c2.26,2.26,5.19,3.46,8.26,3.46c2.93,0,5.99-1.2,8.26-3.46l55.13-55.27
				C410.85,409.79,447.61,450.14,447.61,498.88z"/>
			<polygon class="st1" points="331.22,403.4 300.19,434.56 269.02,403.4 			"/>
		</g>
	</g>
	<g>
		<g>
			<path class="st1" d="M300.3,31.82c-24.53,0-44.49,19.96-44.49,44.49c0,20.48,13.91,37.76,32.78,42.91v28.59
				c0,6.46,5.24,11.71,11.71,11.71c6.46,0,11.71-5.24,11.71-11.71v-28.59c18.87-5.15,32.78-22.43,32.78-42.91
				C344.79,51.78,324.83,31.82,300.3,31.82z M300.3,97.38c-11.62,0-21.07-9.45-21.07-21.07s9.45-21.07,21.07-21.07
				c11.62,0,21.07,9.45,21.07,21.07S311.92,97.38,300.3,97.38z"/>
		</g>
	</g>
	<g>
		<g>
			<path class="st1" d="M535.33,123.14c-8.4-8.4-19.57-13.03-31.46-13.03c-11.88,0-23.05,4.63-31.46,13.03
				c-14.48,14.48-16.86,36.54-7.16,53.52l-20.22,20.22c-4.57,4.57-4.57,11.98,0,16.56c2.29,2.28,5.28,3.43,8.28,3.43
				c3,0,5.99-1.14,8.28-3.43l20.21-20.21c6.65,3.81,14.2,5.86,22.07,5.86c11.88,0,23.05-4.63,31.46-13.03
				c8.4-8.4,13.03-19.57,13.03-31.46C548.36,142.72,543.73,131.54,535.33,123.14z M518.77,169.5c-8.22,8.22-21.59,8.22-29.8,0
				c-8.22-8.22-8.22-21.59,0-29.8c4.11-4.11,9.5-6.16,14.9-6.16c5.4,0,10.79,2.05,14.9,6.16c3.98,3.98,6.17,9.27,6.17,14.9
				C524.95,160.23,522.75,165.52,518.77,169.5z"/>
		</g>
	</g>
	<g>
		<g>
			<path class="st1" d="M555.37,313.77c-20.48,0-37.76,13.91-42.91,32.78h-28.59c-6.46,0-11.71,5.24-11.71,11.71
				s5.24,11.71,11.71,11.71h28.59c5.15,18.87,22.43,32.78,42.91,32.78c24.53,0,44.49-19.96,44.49-44.49
				C599.85,333.73,579.9,313.77,555.37,313.77z M555.37,379.33c-11.62,0-21.07-9.45-21.07-21.07c0-11.62,9.45-21.07,21.07-21.07
				s21.07,9.45,21.07,21.07C576.44,369.88,566.99,379.33,555.37,379.33z"/>
		</g>
	</g>
	<g>
		<g>
			<path class="st1" d="M116.44,346.25H87.85c-5.15-18.87-22.43-32.78-42.91-32.78c-24.53,0-44.49,19.96-44.49,44.49
				c0,24.53,19.96,44.49,44.49,44.49c20.48,0,37.76-13.91,42.91-32.78h28.59c6.46,0,11.71-5.24,11.71-11.71
				S122.91,346.25,116.44,346.25z M44.94,379.03c-11.62,0-21.07-9.45-21.07-21.07c0-11.62,9.45-21.07,21.07-21.07
				s21.07,9.45,21.07,21.07C66.01,369.58,56.56,379.03,44.94,379.03z"/>
		</g>
	</g>
	<g>
		<g>
			<path class="st1" d="M154.56,195.75l-20.21-20.21c3.81-6.65,5.86-14.2,5.86-22.07c0-11.88-4.63-23.05-13.03-31.46
				c-8.4-8.4-19.57-13.03-31.46-13.03s-23.05,4.63-31.46,13.03c-17.34,17.35-17.34,45.57,0,62.91c8.4,8.4,19.57,13.03,31.46,13.03
				c7.87,0,15.43-2.04,22.07-5.86l20.21,20.21c2.29,2.29,5.28,3.43,8.28,3.43c3,0,5.99-1.14,8.28-3.43
				C159.14,207.74,159.14,200.33,154.56,195.75z M110.63,168.37C110.63,168.37,110.63,168.37,110.63,168.37
				c-8.22,8.22-21.59,8.22-29.81,0.01c-8.22-8.22-8.22-21.59,0-29.8c4.11-4.11,9.5-6.16,14.9-6.16s10.79,2.05,14.9,6.16
				c3.98,3.98,6.17,9.27,6.17,14.9C116.8,159.1,114.61,164.39,110.63,168.37z"/>
		</g>
	</g>
</g>
<g>
</g>
<g>
</g>
<g>
</g>
<g>
</g>
<g>
</g>
<g>
</g>
<g>
</g>
<g>
</g>
<g>
</g>
<g>
</g>
<g>
</g>
<g>
</g>
<g>
</g>
<g>
</g>
<g>
</g>
</svg>
