<?xml version="1.0" encoding="utf-8"?>
<!-- Generator: Adobe Illustrator 24.0.0, SVG Export Plug-In . SVG Version: 6.00 Build 0)  -->
<svg version="1.1" id="Layer_1" xmlns="http://www.w3.org/2000/svg" xmlns:xlink="http://www.w3.org/1999/xlink" x="0px" y="0px"
	 viewBox="0 0 512 512" style="enable-background:new 0 0 512 512;" xml:space="preserve">
<style type="text/css">
	.st0{fill:#FFA372;}
</style>
<g>
	<g>
		<path class="st0" d="M256,0C152.8,0,68.8,85.5,68.8,190.5c0,58.8,29.7,130.1,88.3,212c42.9,59.9,85.2,102.7,87,104.5
			c3.3,3.3,7.6,4.9,11.9,4.9c4.2,0,8.4-1.6,11.6-4.7c1.8-1.7,44.2-42.7,87.1-101.9c58.7-80.7,88.4-153,88.4-214.9
			C443.2,85.5,359.2,0,256,0z M256,272.8c-50.5,0-91.5-41.1-91.5-91.5s41.1-91.5,91.5-91.5s91.5,41.1,91.5,91.5
			S306.5,272.8,256,272.8z"/>
	</g>
</g>
</svg>
