<?xml version="1.0" encoding="utf-8"?>
<!-- Generator: Adobe Illustrator 24.0.0, SVG Export Plug-In . SVG Version: 6.00 Build 0)  -->
<svg version="1.1" id="Capa_1" xmlns="http://www.w3.org/2000/svg" xmlns:xlink="http://www.w3.org/1999/xlink" x="0px" y="0px"
	 viewBox="0 0 682 682" style="enable-background:new 0 0 682 682;" xml:space="preserve">
<style type="text/css">
	.st0{fill:#FFFFFF;}
</style>
<g>
	<path class="st0" d="M380.6,682c-31.1-0.4-56.7-10.5-77.7-31.4C226.5,574.4,150.2,498.2,74,421.7c-17.6-17.7-27.5-39.4-30-64.3
		c-3.4-33.6,6.9-63,30.5-86.8c76.1-76.7,152.6-153.1,229.2-229.2c24-23.9,53.7-33.4,87.5-29.8c25.4,2.7,46.8,13.5,64.8,31.6
		c50.7,50.9,101.7,101.3,152.1,152.4c24.7,25.1,34,55.8,29.1,90.7c-3.7,26.6-17.1,47.6-36.2,66.1c-27.1,26.1-53.4,53.1-80,79.7
		c-20.6,20.6-41,41.3-61.8,61.7c-3.4,3.3-3,5.1,0.1,8.2c22.8,22.6,45.4,45.4,68.2,67.9c3,3,3.2,4.7,0.1,7.8
		c-24.5,24.2-48.7,48.6-73.1,72.9C433.7,671.7,408.3,681.4,380.6,682z M378.9,572.7c1.7-0.3,2.6-1.7,3.7-2.8
		c22.6-22.6,45.1-45.2,67.8-67.6c3.2-3.2,3.2-5,0-8.2c-22.6-22.3-45-44.8-67.5-67.3c-4.3-4.3-4.3-4.4-0.1-8.6
		c47.7-47.7,95.3-95.3,143-143c5-5,5.1-3.8,0.1-8.8c-47.7-47.7-95.4-95.3-143-143.1c-3.1-3.1-4.8-3.4-8.1-0.1
		c-73,73.2-146.1,146.3-219.3,219.3c-3.2,3.2-3.2,4.9,0,8c37.1,36.9,74.1,73.9,111,110.9c36.1,36.1,72.2,72.2,108.4,108.3
		C376.1,570.8,377.1,572.4,378.9,572.7z"/>
</g>
</svg>
