<?xml version="1.0" encoding="utf-8"?>
<!-- Generator: Adobe Illustrator 24.0.0, SVG Export Plug-In . SVG Version: 6.00 Build 0)  -->
<svg version="1.1" id="Capa_1" xmlns="http://www.w3.org/2000/svg" xmlns:xlink="http://www.w3.org/1999/xlink" x="0px" y="0px"
	 viewBox="0 0 600 600" style="enable-background:new 0 0 600 600;" xml:space="preserve">
<style type="text/css">
	.st0{fill:#6F4A8E;}
	.st1{fill:#FFA372;}
</style>
<g>
	<g>
		<g>
			<path d="M307.84,32.34c-15.64,0-31.28,2.01-46.19,6.17c-5.88,1.58-9.33,7.6-7.75,13.48c1.58,5.74,7.6,9.18,13.49,7.6
				c13.2-3.59,26.83-5.31,40.46-5.31c84.64,0,153.5,68.72,153.5,153.36c0,78.62-31.42,109.46-59.11,136.43
				c-17.93,17.65-35.01,34.43-38.88,60.97H252.32c-3.73-26.54-20.95-43.33-38.88-60.97c-27.69-26.97-59.11-57.82-59.11-136.43
				c0-36.15,12.91-71.3,36.3-98.99c3.87-4.59,3.3-11.62-1.29-15.49c-4.59-3.87-11.48-3.3-15.49,1.29
				c-26.68,31.56-41.32,71.87-41.32,113.19c0,87.94,36.3,123.52,65.56,152.21c16.64,16.21,29.27,28.55,32.28,47.2
				c-13.92,4.73-23.96,18.08-23.96,33.57c0,15.78,10.47,29.27,24.68,33.86v23.67h-2.73c-6.03,0-10.9,4.88-10.9,11.05
				c0,6.03,4.88,10.9,10.9,10.9h2.73V531c0,18.22,14.78,33,32.85,33h87.8c18.08,0,32.85-14.78,32.85-33v-10.9h2.73
				c6.02,0,10.9-4.88,10.9-10.9c0-6.17-4.88-11.05-10.9-11.05h-2.73v-23.67c14.35-4.59,24.67-18.08,24.67-33.86
				c0-15.49-10.04-28.84-23.96-33.57c3.01-18.65,15.64-30.99,32.28-47.2c29.27-28.69,65.71-64.27,65.71-152.21
				C483.3,110.95,404.54,32.34,307.84,32.34z M362.64,531c0,6.17-4.88,11.05-10.9,11.05h-87.8c-6.03,0-10.9-4.88-10.9-11.05v-10.9
				h109.6V531z M362.64,498.15h-109.6V476.2h109.6V498.15z M387.32,440.62c0,7.6-6.17,13.77-13.63,13.77H242.14
				c-7.6,0-13.77-6.17-13.77-13.77c0-7.6,6.17-13.63,13.77-13.63h131.55C381.15,427,387.32,433.02,387.32,440.62z"/>
			<rect x="253.04" y="476.2" class="st0" width="109.6" height="21.95"/>
			<path class="st0" d="M88.62,218.66c6.05,0,10.96-4.91,10.96-10.96s-4.91-10.96-10.96-10.96H63.41c-6.05,0-10.96,4.91-10.96,10.96
				s4.91,10.96,10.96,10.96H88.62z"/>
			<path class="st1" d="M112.51,307.82l-43.67,25.21c-5.24,3.03-7.04,9.73-4.01,14.97c2.03,3.52,5.71,5.48,9.5,5.48
				c1.86,0,3.74-0.47,5.47-1.47l43.67-25.21c5.24-3.03,7.04-9.73,4.01-14.97C124.46,306.59,117.75,304.79,112.51,307.82z"/>
			<path class="st0" d="M546.88,333.03l-43.67-25.21c-5.24-3.03-11.95-1.23-14.97,4.01c-3.03,5.24-1.23,11.95,4.01,14.97
				l43.67,25.21c1.73,1,3.61,1.47,5.47,1.47c3.79,0,7.47-1.97,9.5-5.48C553.92,342.77,552.12,336.06,546.88,333.03z"/>
			<path class="st1" d="M552.31,196.73H527.1c-6.05,0-10.96,4.91-10.96,10.96s4.91,10.96,10.96,10.96h25.21
				c6.05,0,10.96-4.91,10.96-10.96S558.36,196.73,552.31,196.73z"/>
			<path class="st0" d="M497.74,109.04c1.86,0,3.74-0.47,5.47-1.47l43.67-25.21c5.24-3.03,7.04-9.73,4.01-14.97
				c-3.03-5.24-9.73-7.04-14.97-4.01l-43.67,25.21c-5.24,3.03-7.04,9.73-4.01,14.97C490.26,107.07,493.95,109.04,497.74,109.04z"/>
			<path class="st1" d="M123.47,88.58L79.8,63.37c-5.25-3.03-11.95-1.23-14.97,4.01c-3.03,5.24-1.23,11.95,4.01,14.97l43.67,25.21
				c1.73,1,3.61,1.47,5.47,1.47c3.79,0,7.47-1.97,9.5-5.48C130.51,98.31,128.71,91.61,123.47,88.58z"/>
			<path d="M365.94,129.31c-15.49-15.49-36.15-24.1-58.1-24.1s-42.61,8.61-58.1,24.1c-15.49,15.64-24.1,36.15-24.1,58.24
				c0,18.08,14.78,32.85,32.85,32.85c18.22,0,32.85-14.78,32.85-32.85c0-4.45,1.72-8.61,4.88-11.76c3.16-3.01,7.17-4.73,11.62-4.73
				c4.45,0,8.61,1.72,11.62,4.73c3.16,3.16,4.88,7.32,4.88,11.76c0,2.15-0.43,4.3-1.29,6.17c-0.86,2.01-2.15,3.87-3.73,5.6
				c-14.92,14.92-23.81,25.11-30.27,34.86c-9.61,14.49-14.06,28.12-14.06,43.04c0,8.46,3.16,16.07,8.32,21.95
				c-5.17,5.74-8.32,13.49-8.32,21.95c0,18.08,14.78,32.85,32.85,32.85s32.85-14.78,32.85-32.85c0-8.46-3.16-16.21-8.32-21.95
				c5.16-5.88,8.32-13.49,8.32-21.95c0-1,0.57-3.01,3.01-6.74c4.73-6.89,13.77-16.35,22.09-24.68c7.6-7.6,13.77-16.64,17.93-26.83
				c4.16-10.04,6.31-20.66,6.31-31.42C390.05,165.47,381.58,144.95,365.94,129.31z M307.84,332.02c-6.03,0-10.9-4.88-10.9-10.9
				c0-6.17,4.88-11.05,10.9-11.05c6.02,0,11.05,4.88,11.05,11.05C318.89,327.15,313.87,332.02,307.84,332.02z M363.5,210.51
				c-3.16,7.46-7.6,14.2-13.2,19.8c-13.06,13.05-20.23,21.09-24.82,28.12c-4.59,6.74-6.6,12.77-6.6,18.79
				c0,6.03-5.02,10.9-11.05,10.9c-6.03,0-10.9-4.88-10.9-10.9c0-10.62,3.16-20.08,10.33-30.84c5.74-8.61,13.63-17.65,27.54-31.56
				c3.73-3.73,6.6-7.89,8.47-12.62c2.01-4.59,3.01-9.61,3.01-14.63c0-10.33-4.02-19.94-11.33-27.26
				c-7.17-7.17-16.78-11.19-27.11-11.19c-10.19,0-19.94,4.02-27.12,11.19c-7.31,7.32-11.19,16.93-11.19,27.26
				c0,6.03-5.02,10.9-11.05,10.9c-6.03,0-10.9-4.88-10.9-10.9c0-16.21,6.31-31.27,17.65-42.75c11.33-11.33,26.54-17.65,42.61-17.65
				c16.07,0,31.27,6.31,42.61,17.65c11.48,11.48,17.65,26.54,17.65,42.75C368.1,195.45,366.52,203.2,363.5,210.51z"/>
			<path class="st1" d="M368.1,187.56c0,7.89-1.58,15.64-4.59,22.95c-3.16,7.46-7.6,14.2-13.2,19.8
				c-13.06,13.05-20.23,21.09-24.82,28.12c-4.59,6.74-6.6,12.77-6.6,18.79c0,6.03-5.02,10.9-11.05,10.9c-6.03,0-10.9-4.88-10.9-10.9
				c0-10.62,3.16-20.08,10.33-30.84c5.74-8.61,13.63-17.65,27.54-31.56c3.73-3.73,6.6-7.89,8.47-12.62
				c2.01-4.59,3.01-9.61,3.01-14.63c0-10.33-4.02-19.94-11.33-27.26c-7.17-7.17-16.78-11.19-27.11-11.19
				c-10.19,0-19.94,4.02-27.12,11.19c-7.31,7.32-11.19,16.93-11.19,27.26c0,6.03-5.02,10.9-11.05,10.9c-6.03,0-10.9-4.88-10.9-10.9
				c0-16.21,6.31-31.27,17.65-42.75c11.33-11.33,26.54-17.65,42.61-17.65c16.07,0,31.27,6.31,42.61,17.65
				C361.93,156.29,368.1,171.35,368.1,187.56z"/>
		</g>
	</g>
</g>
<g>
</g>
<g>
</g>
<g>
</g>
<g>
</g>
<g>
</g>
<g>
</g>
<g>
</g>
<g>
</g>
<g>
</g>
<g>
</g>
<g>
</g>
<g>
</g>
<g>
</g>
<g>
</g>
<g>
</g>
</svg>
