<?xml version="1.0" encoding="utf-8"?>
<!-- Generator: Adobe Illustrator 24.0.0, SVG Export Plug-In . SVG Version: 6.00 Build 0)  -->
<svg version="1.1" id="Capa_1" xmlns="http://www.w3.org/2000/svg" xmlns:xlink="http://www.w3.org/1999/xlink" x="0px" y="0px"
	 viewBox="0 0 600 600" style="enable-background:new 0 0 600 600;" xml:space="preserve">
<style type="text/css">
	.st0{fill:#090909;}
	.st1{fill:#6F4A8E;}
	.st2{fill:#FFA372;}
</style>
<g>
	<path class="st0" d="M551.26,416.63c5.44-13.86,2.47-25.24-9.24-34.48c-4.12-3.3-5.61-6.6-5.28-11.55
		c0.5-5.94,0.5-12.04,0.66-18.15v-18.48c-2.64-25.08-1.81-49.32,15.84-70.11c8.41-9.73,9.57-21.78,9.4-34.48
		c-0.66-36.62-0.5-73.41-0.17-110.03c0.17-16.33-6.1-28.04-21.12-34.48c-5.94-1.48-11.88-0.99-17.82-0.66
		c-4.45,4.12-6.1,0.99-8.41-2.64c-7.75-12.54-19.14-17.16-33.32-13.69c-4.78,1.15-6.77,0.33-9.73-3.96
		c-11.55-17.32-30.85-19.63-46.03-5.77c-3.46,3.3-5.61,4.45-10.39,2.47c-14.52-5.77-25.24-2.64-35.47,9.73
		c-3.3,3.96-6.1,5.28-10.72,3.96h-18.31c-18.97,0.16-37.94,0.33-56.75,0.49c-3.96,0.17-7.42-1.15-10.06-4.12
		c-4.45-1.32-8.25-3.79-11.38-6.93c-17.32-12.04-36.29-15.67-57.41-14.68c-31.67,1.32-63.35,0.82-95.19,0
		c-18.31-0.33-30.85,6.43-37.94,23.26c0.33,4.95-0.33,10.06,1.15,14.52c1.98,5.44,0.83,8.08-4.12,10.39
		c-2.97,1.49-5.44,3.96-8.08,5.94c-5.11,8.91-8.08,18.15-4.62,28.21c1.65,4.62-0.66,5.61-3.63,7.75
		c-17.82,12.54-20.29,31.01-6.1,46.68c3.46,3.63,3.96,5.94,2.14,10.56c-5.44,13.86-2.47,25.24,9.24,34.64
		c3.96,3.3,5.61,6.43,5.28,11.38c-0.49,6.76-0.49,13.69-0.66,20.46v18.48c2.47,23.92,1.48,47.01-15.34,66.81
		c-8.41,9.9-10.06,22.27-9.9,35.47c0.66,35.8,0.83,71.76,0,107.72c-0.33,18.15,6.27,30.85,23.26,37.78
		c7.09,0.99,14.02-1.15,20.95-1.65c9.24,14.52,21.28,22.6,39.1,17.16c5.28-1.65,5.44,2.31,7.09,4.95
		c11.88,16.66,31.34,18.97,46.19,5.11c3.63-3.3,5.77-4.12,10.56-2.31c13.86,5.61,25.41,2.64,34.64-8.74
		c3.3-3.96,6.1-6.76,11.38-4.95h20.62c18.15-0.17,36.29-0.33,54.44-0.49c4.12-0.17,7.42,1.15,10.06,4.12
		c5.94,2.47,11.22,5.61,16,9.73c15.67,11.55,33.65,12.21,52.13,11.88c32.5-0.82,64.83-0.66,97.33-0.17
		c16.66,0.33,28.54-5.77,35.47-21.12c0.33-2.97,1.81-6.43,0.66-8.91c-5.11-12.37,1.81-18.81,11.38-23.92
		c4.95-9.4,8.25-18.97,4.29-29.36c-1.98-5.28,2.64-5.28,4.95-7.09c16.66-11.88,18.97-31.01,5.11-46.19
		C549.94,423.56,549.44,421.25,551.26,416.63z M385.8,194.09c5.44-2.31,5.11-7.26,5.11-11.71V99.73c0-3.13-0.17-6.1,0-9.24
		c0.49-8.58,4.12-15.34,13.53-15.18c8.74,0.33,12.04,6.93,12.21,15.18v40.09c0,5.94,0.17,12.54,8.08,12.7
		c8.41,0.17,9.07-6.27,9.07-12.87c0-15.67,0.17-31.34,0-47.01c0-9.4,3.14-16.33,13.36-16.17c9.73,0,12.21,7.26,12.21,15.84
		c-0.17,15.34,0,30.68-0.17,45.86c0,4.29,0,8.41,2.14,12.21c10.89,3.96,14.68,1.65,15.34-9.24c0.33-4.12,0.5-8.25,0.66-12.37
		c-0.17-6.76-0.33-13.69-0.5-20.46c-0.17-8.25,2.97-14.68,11.88-14.85c9.24-0.33,13.53,5.77,13.69,14.68
		c0.16,2.64-0.33,5.28-0.33,7.92v16.17c0.17,8.74,0.49,17.49,0.33,26.23c0,5.94,1.32,11.05,8.25,11.22
		c6.93,0.17,8.91-4.78,8.74-10.89v-31.84c0-9.07,2.97-16.66,13.2-16.33c9.4,0.17,12.7,7.26,12.54,15.84
		c-0.17,11.88-0.49,23.59-0.82,35.3c1.48,6.27,1.32,12.54,0.17,18.64c1.15,22.93,0.99,45.69,0,68.62c0,11.05-7.59,18.81-13.03,26.89
		c-8.74,13.36-12.87,27.05-12.04,43.06c0.82,16.66,0.17,33.49,0.17,50.31c-0.17,16-0.17,16-16.99,14.85h-54.93
		c-0.99-0.33-1.98-0.66-2.81-0.82c0.83-1.15,1.81-2.31,2.64-3.46c8.08-9.9,16.17-19.96,13.86-34.31c-2.47-4.45-4.95-8.91-7.59-13.36
		c-5.44-3.46-10.72-7.92-17.32-7.09c-9.9,1.15-12.54-2.64-11.38-11.88c0.82-6.6,0.33-13.53,0.33-20.29c-1.32-3.3-2.47-6.6-3.79-9.9
		c-11.38-11.88-22.6-23.59-33.98-35.47c-4.78-3.13-8.74-7.09-11.88-11.88c-12.04-10.56-23.42-22.1-33.98-34.31
		c-0.99-0.49-1.98-1.15-2.64-1.81c-5.44-5.28-12.87-10.89-5.44-18.97c7.26-7.75,14.35-3.13,19.96,3.63
		c6.6,5.11,13.53,10.06,19.96,15.34C377.22,193.43,380.85,196.07,385.8,194.09z M214.57,271.13c19.47-17.65,38.11-36.29,56.09-55.59
		c9.24-9.9,19.13-14.35,32.17-11.55c8.58,0,17.32-2.14,25.74,1.32c12.21,10.72,23.42,22.27,34.15,34.31
		c4.62,3.3,8.58,7.09,11.71,11.71c10.06,9.9,20.29,19.8,30.35,29.86c1.82,1.81,3.63,3.96,2.81,6.93c0,6.76,0.16,13.36,0.16,20.13
		c2.97,14.02-1.65,24.25-12.37,33.98c-19.47,17.65-38.11,36.29-56.09,55.59c-9.24,10.23-19.46,13.69-32.33,11.22
		c-6.76,0-13.36,0-20.13-0.17c-3.63,1.49-5.78-0.99-7.75-3.13c-9.73-9.9-19.47-19.96-29.03-30.02c-4.62-3.13-8.41-7.09-11.55-11.71
		c-12.37-11.71-25.41-22.44-35.14-36.62c-2.14-7.59-1.15-15.34-0.66-23.26C199.88,290.76,204.17,280.69,214.57,271.13z
		 M74.02,207.78c0-8.25,5.77-12.37,13.53-12.54c15.18-0.17,30.35,0.33,45.53,0.5c5.61-1.65,9.4-4.62,9.4-10.89
		c-2.47-5.77-7.09-7.09-13.03-7.09c-14.02,0.33-28.21,0-42.23-0.17c-7.26,0.5-14.85,1.98-19.3-6.27
		c-4.95-13.69,0.17-19.3,16.83-18.31h20.79c7.59-0.17,15.18-0.49,22.76-0.49c6.27,0,12.87,0,13.69-8.25
		c0.83-7.75-5.61-8.58-11.22-9.9c-6.11,0.99-12.21,0.99-18.48-0.16c-5.28,0.33-10.56,0.66-15.84,0.66
		c-7.92,0-13.53-3.79-13.69-12.04c-0.17-8.74,5.44-13.2,13.69-13.53c10.72-0.33,21.28,0.17,32,0.33c6.11,0,12.21,0,18.48,0.17
		c7.75-0.33,13.36-2.8,12.21-12.21c-2.81-5.11-7.59-5.44-12.7-5.28h-32c-8.25-0.17-14.52-3.96-14.52-12.7
		c0-8.74,6.11-13.03,14.35-12.87c25.4,0.17,50.81-1.15,76.21,0.66c16.17-1.81,32.33-0.49,48.5-0.66c6.27,0,11.05,3.79,15.84,7.75
		c4.45,1.15,8.25,3.46,11.38,6.93c17.82,14.35,39.26,10.23,59.72,11.55c6.1-0.99,12.21-0.99,18.31,0.16
		c29.69-2.97,29.69-2.97,29.69,25.57c0,14.35-0.17,28.7-0.33,43.22c-0.17,1.98,2.8,6.76-3.13,3.46c-3.96-3.13-7.59-6.43-11.71-9.24
		c-9.57-6.6-19.8-7.75-30.19-2.47c-10.06,5.28-15.51,13.86-14.35,25.24c0.66,7.59-2.8,8.58-8.41,7.59
		c-22.43-3.63-38.11,6.27-52.79,22.27c-21.12,23.1-44.21,44.38-66.32,66.32c-3.63,3.63-7.26,7.26-12.87,5.11
		c-4.62-1.65-7.92-4.78-6.6-10.39c2.64-13.69,14.68-20.79,21.78-31.18c3.3-4.95,5.44-9.07,3.46-14.68
		c-5.94-4.78-13.03-2.8-19.8-3.13c-12.54-0.33-25.07-0.33-37.61-0.66c-6.77,1.32-13.69,1.32-20.46,0
		c-9.07,0.17-18.31,0.82-27.39,0.5C79.62,220.15,73.85,215.86,74.02,207.78z M223.97,419.1c-4.12,1.98-4.29,5.94-4.45,9.73
		c-0.5,16.66,1.16,33.32-0.99,49.82c1.98,14.85,0.99,29.69,0.82,44.54c0,8.08-4.12,14.52-12.7,14.52
		c-8.91,0.17-12.7-6.27-12.7-14.52c-0.17-9.4,0.33-18.97,0.66-28.54c-0.33-4.78-0.49-9.73-0.82-14.68
		c-0.33-5.28-1.65-10.06-8.08-10.23c-6.76-0.17-9.07,4.29-9.07,10.39c-0.17,13.36-0.33,26.56-0.33,39.92
		c0,4.12,0.33,8.25,0.33,12.37c-0.33,7.26-3.8,12.37-11.22,13.36c-7.09,0.99-12.54-1.65-13.52-9.73c-0.33-20.46-0.5-40.75-0.83-61.2
		c-3.46-4.29-7.75-6.43-13.2-4.95c-0.83,0.66-1.65,1.32-2.31,1.98c-2.97,6.6-0.99,13.86-2.47,20.62c0.17,7.59,0.5,15.18,0.5,22.77
		c0,7.92-3.79,13.36-11.88,13.69c-8.74,0.16-13.03-5.28-13.69-13.53c-0.33-3.79,0.33-7.59,0.33-11.38v-12.87
		c-0.17-9.57-0.33-19.14-0.33-28.54c0-5.77-2.31-9.9-8.41-10.06c-6.1,0-8.58,3.96-8.58,9.73v33.16c0,9.07-2.97,16.5-13.2,16.17
		c-9.57-0.16-12.7-7.26-12.54-15.84c0.16-11.88,0.49-23.59,0.82-35.3c-1.32-6.27-1.32-12.37-0.17-18.64
		c-1.15-22.93-1.15-45.7,0-68.62c-1.32-8.58,5.44-13.69,8.74-20.13c4.45-8.41,9.9-16.33,14.85-24.25c0.5-2.14,0.99-4.12,1.48-6.1
		c0-23.92,0.66-48.01-0.33-71.93c-0.5-11.55,3.14-15.01,13.86-13.2c1.82,0.33,3.79,0.33,5.61,0.66c17.49-0.17,35.14-0.17,52.62-0.17
		c0.99,0.33,1.98,0.66,2.8,0.82c-0.82,1.15-1.81,2.31-2.64,3.46c-8.08,10.06-16.33,19.96-14.19,34.15
		c1.81,3.79,3.63,7.59,5.44,11.38c5.94,5.28,12.37,10.72,20.79,9.73c8.74-1.15,11.38,1.81,10.39,10.23
		c-0.66,7.09-0.17,14.35-0.33,21.45c2.14,4.45,4.29,8.91,6.6,13.36c11.22,11.38,22.43,22.93,33.65,34.31
		c4.62,3.13,8.58,7.26,11.71,11.88c11.22,9.9,21.94,20.46,31.67,31.84c0.99,0.66,1.98,1.15,2.81,1.98
		c5.44,5.28,12.7,11.05,5.28,18.97c-7.42,7.92-14.35,2.97-19.96-3.63c-7.09-5.61-14.35-11.05-21.44-16.66
		C231.89,418.44,228.26,417.12,223.97,419.1z M238.65,447.8c-0.33,0.17-0.82,0.5-1.32,0.5c-0.33,0-0.5-0.33-0.66-0.66
		c0.5-0.17,0.99-0.5,1.49-0.5C238.32,447.14,238.49,447.48,238.65,447.8z M544.66,449.95c-0.83,6.43-4.95,10.39-11.38,10.56
		c-8.74,0.17-17.32-0.33-26.06-0.49c-7.92,0.16-15.84,0.49-23.92,0.49c-6.43,0.17-14.02-0.82-14.85,8.25
		c-0.83,9.4,7.42,8.74,13.53,9.9c6.1-0.99,12.21-0.99,18.48,0.17c4.78-0.33,9.73-0.82,14.68-0.66c7.42,0.33,12.21,4.45,12.54,12.04
		c0.33,8.08-4.78,12.87-12.54,13.36c-10.56,0.66-21.28,0-31.84-0.17H463.5c-9.4,0.17-14.35,4.12-11.22,14.35
		c11.38,5.94,23.75,2.31,35.8,2.8c16,0.66,22.6,3.79,22.77,12.87c0,9.07-6.93,13.36-22.43,13.2c-22.1-0.33-44.21,0.99-66.15-0.99
		c-16.99,0.33-33.98,0.66-50.81,0.83c-5.61,0-9.9-3.46-14.19-6.6c-4.78-2.14-9.4-4.29-13.03-8.08
		c-17.16-13.86-37.78-10.56-57.41-11.71c-6.1,0.99-12.21,0.99-18.31-0.17c-32,3.13-32,3.13-32-28.21c0-11.55,0-22.93,0.17-34.31
		c0-2.97-1.65-6.76,1.82-8.41c3.46-1.65,5.44,1.81,7.59,3.63c8.25,7.09,17.16,11.71,28.21,9.4c13.36-2.64,22.27-12.87,21.94-26.72
		c-0.17-6.93,1.15-10.06,8.41-8.74c22.43,3.79,38.11-6.27,52.79-22.27c21.28-23.1,44.21-44.38,66.48-66.32
		c3.96-3.96,7.92-7.59,14.02-4.45c4.95,2.47,7.42,6.27,4.95,12.04c-4.29,11.71-14.19,19.3-21.45,29.03
		c-3.46,4.62-5.44,8.91-3.46,14.52c5.28,4.45,11.55,2.97,17.49,3.13c14.02,0.33,28.21,0.33,42.23,0.66c6.76-1.15,13.69-1.15,20.46,0
		c8.41-0.17,16.66-0.83,25.07-0.33c7.59,0.33,13.36,4.62,13.2,12.7c0,8.25-5.77,12.37-13.53,12.54
		c-14.35,0.17-28.87-0.33-43.22-0.49c-7.42,1.15-12.87,4.12-11.22,13.03c3.46,4.12,7.92,4.95,13.2,4.95
		c14.68-0.17,29.36,0,43.88,0.16c4.29-0.49,8.41-0.82,12.21,1.32C542.85,439.72,545.65,444.01,544.66,449.95z"/>
	<path class="st1" d="M544.5,171.16c1.15,22.93,0.99,45.69,0,68.62c0,11.05-7.59,18.81-13.03,26.89
		c-8.74,13.36-12.87,27.05-12.04,43.06c0.82,16.66,0.17,33.49,0.17,50.31c-0.17,16-0.17,16-16.99,14.85h-54.93
		c-0.99-0.33-1.98-0.66-2.81-0.82c0.83-1.15,1.81-2.31,2.64-3.46c8.08-9.9,16.17-19.96,13.86-34.31c-2.47-4.45-4.95-8.91-7.59-13.36
		c-5.44-3.46-10.72-7.92-17.32-7.09c-9.9,1.15-12.54-2.64-11.38-11.88c0.82-6.6,0.33-13.53,0.33-20.29c-1.32-3.3-2.47-6.6-3.79-9.9
		c-11.38-11.88-22.6-23.59-33.98-35.47c-4.78-3.13-8.74-7.09-11.88-11.88c-12.04-10.56-23.42-22.1-33.98-34.31
		c-0.99-0.49-1.98-1.15-2.64-1.81c-5.44-5.28-12.87-10.89-5.44-18.97c7.26-7.75,14.35-3.13,19.96,3.63
		c6.6,5.11,13.53,10.06,19.96,15.34c3.63,3.13,7.26,5.77,12.21,3.79c5.44-2.31,5.11-7.26,5.11-11.71V99.73c0-3.13-0.17-6.1,0-9.24
		c0.49-8.58,4.12-15.34,13.53-15.18c8.74,0.33,12.04,6.93,12.21,15.18v40.09c0,5.94,0.17,12.54,8.08,12.7
		c8.41,0.17,9.07-6.27,9.07-12.87c0-15.67,0.17-31.34,0-47.01c0-9.4,3.14-16.33,13.36-16.17c9.73,0,12.21,7.26,12.21,15.84
		c-0.17,15.34,0,30.68-0.17,45.86c0,4.29,0,8.41,2.14,12.21c10.89,3.96,14.68,1.65,15.34-9.24c0.33-4.12,0.5-8.25,0.66-12.37
		c-0.17-6.76-0.33-13.69-0.5-20.46c-0.17-8.25,2.97-14.68,11.88-14.85c9.24-0.33,13.53,5.77,13.69,14.68
		c0.16,2.64-0.33,5.28-0.33,7.92v16.17c0.17,8.74,0.49,17.49,0.33,26.23c0,5.94,1.32,11.05,8.25,11.22
		c6.93,0.17,8.91-4.78,8.74-10.89v-31.84c0-9.07,2.97-16.66,13.2-16.33c9.4,0.17,12.7,7.26,12.54,15.84
		c-0.17,11.88-0.49,23.59-0.82,35.3C545.81,158.79,545.65,165.06,544.5,171.16z"/>
	<path class="st2" d="M544.66,449.95c-0.83,6.43-4.95,10.39-11.38,10.56c-8.74,0.17-17.32-0.33-26.06-0.49
		c-7.92,0.16-15.84,0.49-23.92,0.49c-6.43,0.17-14.02-0.82-14.85,8.25c-0.83,9.4,7.42,8.74,13.53,9.9
		c6.1-0.99,12.21-0.99,18.48,0.17c4.78-0.33,9.73-0.82,14.68-0.66c7.42,0.33,12.21,4.45,12.54,12.04
		c0.33,8.08-4.78,12.87-12.54,13.36c-10.56,0.66-21.28,0-31.84-0.17H463.5c-9.4,0.17-14.35,4.12-11.22,14.35
		c11.38,5.94,23.75,2.31,35.8,2.8c16,0.66,22.6,3.79,22.77,12.87c0,9.07-6.93,13.36-22.43,13.2c-22.1-0.33-44.21,0.99-66.15-0.99
		c-16.99,0.33-33.98,0.66-50.81,0.83c-5.61,0-9.9-3.46-14.19-6.6c-4.78-2.14-9.4-4.29-13.03-8.08
		c-17.16-13.86-37.78-10.56-57.41-11.71c-6.1,0.99-12.21,0.99-18.31-0.17c-32,3.13-32,3.13-32-28.21c0-11.55,0-22.93,0.17-34.31
		c0-2.97-1.65-6.76,1.82-8.41c3.46-1.65,5.44,1.81,7.59,3.63c8.25,7.09,17.16,11.71,28.21,9.4c13.36-2.64,22.27-12.87,21.94-26.72
		c-0.17-6.93,1.15-10.06,8.41-8.74c22.43,3.79,38.11-6.27,52.79-22.27c21.28-23.1,44.21-44.38,66.48-66.32
		c3.96-3.96,7.92-7.59,14.02-4.45c4.95,2.47,7.42,6.27,4.95,12.04c-4.29,11.71-14.19,19.3-21.45,29.03
		c-3.46,4.62-5.44,8.91-3.46,14.52c5.28,4.45,11.55,2.97,17.49,3.13c14.02,0.33,28.21,0.33,42.23,0.66c6.76-1.15,13.69-1.15,20.46,0
		c8.41-0.17,16.66-0.83,25.07-0.33c7.59,0.33,13.36,4.62,13.2,12.7c0,8.25-5.77,12.37-13.53,12.54
		c-14.35,0.17-28.87-0.33-43.22-0.49c-7.42,1.15-12.87,4.12-11.22,13.03c3.46,4.12,7.92,4.95,13.2,4.95
		c14.68-0.17,29.36,0,43.88,0.16c4.29-0.49,8.41-0.82,12.21,1.32C542.85,439.72,545.65,444.01,544.66,449.95z"/>
	<path class="st1" d="M276.76,441.7c-7.42,7.92-14.35,2.97-19.96-3.63c-7.09-5.61-14.35-11.05-21.44-16.66
		c-3.47-2.97-7.09-4.29-11.38-2.31c-4.12,1.98-4.29,5.94-4.45,9.73c-0.5,16.66,1.16,33.32-0.99,49.82
		c1.98,14.85,0.99,29.69,0.82,44.54c0,8.08-4.12,14.52-12.7,14.52c-8.91,0.17-12.7-6.27-12.7-14.52c-0.17-9.4,0.33-18.97,0.66-28.54
		c-0.33-4.78-0.49-9.73-0.82-14.68c-0.33-5.28-1.65-10.06-8.08-10.23c-6.76-0.17-9.07,4.29-9.07,10.39
		c-0.17,13.36-0.33,26.56-0.33,39.92c0,4.12,0.33,8.25,0.33,12.37c-0.33,7.26-3.8,12.37-11.22,13.36
		c-7.09,0.99-12.54-1.65-13.52-9.73c-0.33-20.46-0.5-40.75-0.83-61.2c-3.46-4.29-7.75-6.43-13.2-4.95
		c-0.83,0.66-1.65,1.32-2.31,1.98c-2.97,6.6-0.99,13.86-2.47,20.62c0.17,7.59,0.5,15.18,0.5,22.77c0,7.92-3.79,13.36-11.88,13.69
		c-8.74,0.16-13.03-5.28-13.69-13.53c-0.33-3.79,0.33-7.59,0.33-11.38v-12.87c-0.17-9.57-0.33-19.14-0.33-28.54
		c0-5.77-2.31-9.9-8.41-10.06c-6.1,0-8.58,3.96-8.58,9.73v33.16c0,9.07-2.97,16.5-13.2,16.17c-9.57-0.16-12.7-7.26-12.54-15.84
		c0.16-11.88,0.49-23.59,0.82-35.3c-1.32-6.27-1.32-12.37-0.17-18.64c-1.15-22.93-1.15-45.7,0-68.62
		c-1.32-8.58,5.44-13.69,8.74-20.13c4.45-8.41,9.9-16.33,14.85-24.25c0.5-2.14,0.99-4.12,1.48-6.1c0-23.92,0.66-48.01-0.33-71.93
		c-0.5-11.55,3.14-15.01,13.86-13.2c1.82,0.33,3.79,0.33,5.61,0.66c17.49-0.17,35.14-0.17,52.62-0.17c0.99,0.33,1.98,0.66,2.8,0.82
		c-0.82,1.15-1.81,2.31-2.64,3.46c-8.08,10.06-16.33,19.96-14.19,34.15c1.81,3.79,3.63,7.59,5.44,11.38
		c5.94,5.28,12.37,10.72,20.79,9.73c8.74-1.15,11.38,1.81,10.39,10.23c-0.66,7.09-0.17,14.35-0.33,21.45
		c2.14,4.45,4.29,8.91,6.6,13.36c11.22,11.38,22.43,22.93,33.65,34.31c4.62,3.13,8.58,7.26,11.71,11.88
		c11.22,9.9,21.94,20.46,31.67,31.84c0.99,0.66,1.98,1.15,2.81,1.98C276.92,428.01,284.18,433.78,276.76,441.7z"/>
	<path class="st2" d="M370.46,165.38c-3.96-3.13-7.59-6.43-11.71-9.24c-9.57-6.6-19.8-7.75-30.19-2.47
		c-10.06,5.28-15.51,13.86-14.35,25.24c0.66,7.59-2.8,8.58-8.41,7.59c-22.43-3.63-38.11,6.27-52.79,22.27
		c-21.12,23.1-44.21,44.38-66.32,66.32c-3.63,3.63-7.26,7.26-12.87,5.11c-4.62-1.65-7.92-4.78-6.6-10.39
		c2.64-13.69,14.68-20.79,21.78-31.18c3.3-4.95,5.44-9.07,3.46-14.68c-5.94-4.78-13.03-2.8-19.8-3.13
		c-12.54-0.33-25.07-0.33-37.61-0.66c-6.77,1.32-13.69,1.32-20.46,0c-9.07,0.17-18.31,0.82-27.39,0.5
		c-7.59-0.5-13.36-4.78-13.2-12.87c0-8.25,5.77-12.37,13.53-12.54c15.18-0.17,30.35,0.33,45.53,0.5c5.61-1.65,9.4-4.62,9.4-10.89
		c-2.47-5.77-7.09-7.09-13.03-7.09c-14.02,0.33-28.21,0-42.23-0.17c-7.26,0.5-14.85,1.98-19.3-6.27
		c-4.95-13.69,0.17-19.3,16.83-18.31h20.79c7.59-0.17,15.18-0.49,22.76-0.49c6.27,0,12.87,0,13.69-8.25
		c0.83-7.75-5.61-8.58-11.22-9.9c-6.11,0.99-12.21,0.99-18.48-0.16c-5.28,0.33-10.56,0.66-15.84,0.66
		c-7.92,0-13.53-3.79-13.69-12.04c-0.17-8.74,5.44-13.2,13.69-13.53c10.72-0.33,21.28,0.17,32,0.33c6.11,0,12.21,0,18.48,0.17
		c7.75-0.33,13.36-2.8,12.21-12.21c-2.81-5.11-7.59-5.44-12.7-5.28h-32c-8.25-0.17-14.52-3.96-14.52-12.7
		c0-8.74,6.11-13.03,14.35-12.87c25.4,0.17,50.81-1.15,76.21,0.66c16.17-1.81,32.33-0.49,48.5-0.66c6.27,0,11.05,3.79,15.84,7.75
		c4.45,1.15,8.25,3.46,11.38,6.93c17.82,14.35,39.26,10.23,59.72,11.55c6.1-0.99,12.21-0.99,18.31,0.16
		c29.69-2.97,29.69-2.97,29.69,25.57c0,14.35-0.17,28.7-0.33,43.22C373.43,163.9,376.4,168.68,370.46,165.38z"/>
</g>
<g>
</g>
<g>
</g>
<g>
</g>
<g>
</g>
<g>
</g>
<g>
</g>
<g>
</g>
<g>
</g>
<g>
</g>
<g>
</g>
<g>
</g>
<g>
</g>
<g>
</g>
<g>
</g>
<g>
</g>
</svg>
